<svg width="49" height="49" viewBox="0 0 49 49" fill="none" xmlns="http://www.w3.org/2000/svg">
<g filter="url(#filter0_d_34_2)">
<path d="M24.5 3.41667C33.9198 3.41667 41.5833 11.0803 41.5833 20.5C41.5833 29.9198 33.9198 37.5833 24.5 37.5833C15.0803 37.5833 7.41667 29.9198 7.41667 20.5C7.41667 11.0803 15.0803 3.41667 24.5 3.41667ZM24.5 0C13.1789 0 4 9.17888 4 20.5C4 31.8211 13.1789 41 24.5 41C35.8211 41 45 31.8211 45 20.5C45 9.17888 35.8211 0 24.5 0ZM26.2083 20.5V10.25H22.7917V23.9167H34.75V20.5H26.2083Z" fill="#23D997"/>
</g>
<defs>
<filter id="filter0_d_34_2" x="0" y="0" width="49" height="49" filterUnits="userSpaceOnUse" color-interpolation-filters="sRGB">
<feFlood flood-opacity="0" result="BackgroundImageFix"/>
<feColorMatrix in="SourceAlpha" type="matrix" values="0 0 0 0 0 0 0 0 0 0 0 0 0 0 0 0 0 0 127 0" result="hardAlpha"/>
<feOffset dy="4"/>
<feGaussianBlur stdDeviation="2"/>
<feComposite in2="hardAlpha" operator="out"/>
<feColorMatrix type="matrix" values="0 0 0 0 0 0 0 0 0 0 0 0 0 0 0 0 0 0 0.25 0"/>
<feBlend mode="normal" in2="BackgroundImageFix" result="effect1_dropShadow_34_2"/>
<feBlend mode="normal" in="SourceGraphic" in2="effect1_dropShadow_34_2" result="shape"/>
</filter>
</defs>
</svg>
