<svg width="41" height="42" viewBox="0 0 41 42" fill="none" xmlns="http://www.w3.org/2000/svg">
<path fill-rule="evenodd" clip-rule="evenodd" d="M20.5 0C31.8143 0 41 9.40975 41 21C41 32.5903 31.8143 42 20.5 42C9.18571 42 0 32.5903 0 21C0 9.40975 9.18571 0 20.5 0ZM7.92154 32.837C11.0444 36.3177 15.5253 38.5 20.5 38.5H20.5068L12.6178 24.5035L7.92154 32.837V32.837ZM35.2942 29.75H19.5211L24.2173 38.0835C28.9443 37.0072 32.9367 33.922 35.2942 29.75ZM4.20079 15.75C3.69171 17.4073 3.41667 19.1713 3.41667 21C3.41667 24.1902 4.25204 27.1827 5.71096 29.7587L10.6463 21.0035L10.6446 21L10.6498 20.9965L13.6069 15.75H4.20079V15.75ZM35.2976 12.2552L27.4102 26.25H36.7992C37.3083 24.5927 37.5833 22.8287 37.5833 21C37.5833 17.815 36.7514 14.8295 35.2976 12.2552V12.2552ZM23.464 15.75H17.5514L14.5909 21.0035L17.548 26.25H23.4657L26.4228 21.0018L23.464 15.75ZM28.3959 17.5018L33.0887 9.17525C29.9659 5.68925 25.4832 3.50175 20.5051 3.5L28.3959 17.5018ZM16.7929 3.91475C12.0625 4.9875 8.06504 8.0745 5.70583 12.25H21.4908L16.7929 3.91475Z" fill="#23D997"/>
</svg>
