<svg width="42" height="42" viewBox="0 0 42 42" fill="none" xmlns="http://www.w3.org/2000/svg">
<path d="M21.287 12.5387C19.2745 12.873 18.3085 14.6965 19.1327 16.6128C20.0042 18.634 22.4945 19.929 24.5473 19.418C26.3655 18.9682 27.2055 17.227 26.418 15.4017C25.5937 13.4855 23.296 12.2045 21.287 12.5387ZM23.884 17.7853L24.066 18.186L23.6827 18.2648L23.513 17.8815C23.1175 17.9533 22.6695 17.9427 22.2548 17.8342L22.141 17.157C22.4823 17.2095 22.9075 17.2585 23.2312 17.192L23.45 17.1202C23.8367 16.9295 23.716 16.443 23.142 16.3275C22.7132 16.233 21.5792 16.303 21.1557 15.3615C20.9177 14.8295 21.0945 14.2748 21.7787 14.021L21.5897 13.6027L21.9695 13.524L22.1515 13.9247C22.4297 13.8792 22.7552 13.8618 23.1367 13.895L23.289 14.5652C22.9915 14.5285 22.6712 14.4935 22.393 14.5512L22.288 14.5793C21.7473 14.7228 21.9205 15.2355 22.4 15.3598C23.1928 15.5435 24.1395 15.603 24.514 16.4307C24.8168 17.1045 24.465 17.5648 23.884 17.7853ZM41.93 19.635L35.3395 5.25C24.528 12.257 12.5772 4.6935 3.92525 13.0445L10.514 27.4295C19.7855 19.5685 32.4222 27.013 41.93 19.635V19.635ZM37.0247 16.394C36.3685 17.3058 35.882 18.3488 35.5915 19.4408C29.3037 21.3553 21.7822 19.089 14.56 21.6125C13.3927 20.993 11.9298 20.6045 10.7293 20.6395L8.743 16.2873C9.499 15.3685 10.094 13.9685 10.3495 12.6227C16.2977 10.4772 23.7405 12.894 31.696 10.171C32.6077 10.7765 33.6735 11.2157 34.7235 11.4327L37.0247 16.394V16.394ZM42 26.2675C30.0003 33.1643 20.3017 23.7755 7.875 36.75L0 19.3025L2.4535 16.7423L9.11575 31.4527L9.11225 31.465C22.141 21.6737 28.7035 29.407 40.803 23.4797C41.3175 24.6137 41.7917 25.8108 42 26.2675V26.2675Z" fill="#23D997"/>
</svg>
