<svg width="42" height="42" viewBox="0 0 42 42" fill="none" xmlns="http://www.w3.org/2000/svg">
<g clip-path="url(#clip0_34_6)">
<path d="M17.7083 28.112C21.721 27.1845 25.4555 26.3725 23.6477 22.9565C18.1405 12.5598 22.1865 7 28.0017 7C33.9307 7 37.877 12.7733 32.3558 22.9583C30.492 26.3953 34.3665 27.2055 38.2935 28.1138C41.7672 28.9153 42 30.6128 42 33.551L41.9947 35H39.669C39.669 31.3443 39.8142 30.8577 37.5235 30.3292C34.1967 29.5627 31.0572 28.8383 29.9092 26.2973C29.491 25.3698 29.218 23.8438 30.3047 21.847C32.7057 17.416 33.313 13.5765 31.9655 11.3173C30.387 8.6625 25.6357 8.6765 24.0695 11.2788C22.7255 13.5065 23.324 17.367 25.7075 21.8662C26.7697 23.8717 26.4897 25.3943 26.068 26.3165C24.913 28.8453 21.742 29.5768 18.3855 30.3503C16.1945 30.8578 16.3345 31.3792 16.3345 35H14.0053C14.0053 31.157 13.6973 29.0395 17.7083 28.112V28.112ZM0.0035 35H2.32925C2.32925 31.6435 2.00375 32.5763 5.52125 31.5473C7.29575 31.031 8.86375 30.282 9.57425 28.7263C9.94525 27.916 10.1955 26.5913 9.29075 24.8815C7.62475 21.735 7.1575 18.977 8.04475 17.5053C9.002 15.9145 12.0172 15.9162 12.978 17.5315C14.6142 20.2737 11.5902 24.5 11.193 26.25H13.636C14.406 24.5 15.7465 22.386 15.7465 19.425C15.7465 15.9075 13.4505 14 10.5 14C6.13725 14 3.10275 18.1702 7.2345 25.9682C8.589 28.5302 5.789 29.1393 2.78075 29.834C0.17325 30.4378 0 31.71 0 33.9185L0.0035 35V35Z" fill="#23D997"/>
</g>
<defs>
<clipPath id="clip0_34_6">
<rect width="42" height="42" fill="white"/>
</clipPath>
</defs>
</svg>
